<svg xmlns="http://www.w3.org/2000/svg"
     viewBox="0 0 256 256">
  <defs>
    <linearGradient id="rent2ownGradient" x1="0%" y1="0%" x2="100%" y2="100%">
      <stop offset="0%" stop-color="#ff4fd8"/>
      <stop offset="100%" stop-color="#9b5bff"/>
    </linearGradient>
  </defs>

  <!-- Kreisförmige Pfeile -->
  <path d="M64 104
           A80 80 0 0 1 192 104"
        fill="none"
        stroke="url(#rent2ownGradient)"
        stroke-width="14"
        stroke-linecap="round" />
  <!-- Pfeilkopf oben rechts -->
  <polygon points="192,92 210,104 192,116"
           fill="url(#rent2ownGradient)" />

  <path d="M192 152
           A80 80 0 0 1 64 152"
        fill="none"
        stroke="url(#rent2ownGradient)"
        stroke-width="14"
        stroke-linecap="round" />
  <!-- Pfeilkopf unten links -->
  <polygon points="64,140 46,152 64,164"
           fill="url(#rent2ownGradient)" />

  <!-- Haus in der Mitte -->
  <polygon points="96,132 128,96 160,132"
           fill="url(#rent2ownGradient)" />
  <rect x="104" y="132" width="48" height="40"
        fill="url(#rent2ownGradient)" />
  <rect x="122" y="144" width="16" height="28"
        fill="#ffffff" fill-opacity="0" />

  <!-- Euro-Symbol links -->
  <g transform="translate(46,116)">
    <path d="M24 0
             C14 0 6 8 6 18
             C6 28 14 36 24 36
             C32 36 38 32 42 26"
          fill="none"
          stroke="url(#rent2ownGradient)"
          stroke-width="4"
          stroke-linecap="round" />
    <line x1="8" y1="12" x2="30" y2="12"
          stroke="url(#rent2ownGradient)"
          stroke-width="4"
          stroke-linecap="round" />
    <line x1="8" y1="24" x2="30" y2="24"
          stroke="url(#rent2ownGradient)"
          stroke-width="4"
          stroke-linecap="round" />
  </g>

  <!-- Prozent-Symbol rechts -->
  <g transform="translate(176,112)">
    <line x1="0" y1="0" x2="32" y2="40"
          stroke="url(#rent2ownGradient)"
          stroke-width="4"
          stroke-linecap="round" />
    <circle cx="6" cy="10" r="6"
            fill="none"
            stroke="url(#rent2ownGradient)"
            stroke-width="4" />
    <circle cx="26" cy="30" r="6"
            fill="none"
            stroke="url(#rent2ownGradient)"
            stroke-width="4" />
  </g>
</svg>
